<svg id="Ebene_1" data-name="Ebene 1" xmlns="http://www.w3.org/2000/svg" xmlns:xlink="http://www.w3.org/1999/xlink" viewBox="0 0 194.93 197.62"><defs><style>.cls-1{fill:none;}.cls-2{clip-path:url(#clip-path);}.cls-3{fill:#2b2b2a;}</style><clipPath id="clip-path" transform="translate(-2.76 -1)"><rect class="cls-1" x="2.76" y="1" width="194.93" height="197.62"/></clipPath></defs><g class="cls-2"><path class="cls-3" d="M195.41,125.24a79.15,79.15,0,0,1-3.83,11c-1.6,3.69-3.53,7.36-4.67,9.37a117.56,117.56,0,0,1-12.55,15.59c.18-.4-3.34,2.7-7.34,5.54a76.93,76.93,0,0,1-13.42,7.56c-1.46.65-4.71,1.65-3.81,1.46-8.76,2.35-13.34,3.49-22.2,5.55.63-.2-3,.5-5,.69a143.57,143.57,0,0,1-19.48.46,58.37,58.37,0,0,0,17.71,5.92,99.49,99.49,0,0,0,10,1.31c3.36.21,6.66.28,10,1.46-3.25.12-6.4,1.36-9.62,2.45a96.43,96.43,0,0,1-30.72,5q-3.28,0-6.43-.29c-2.13-.18-4.19-.46-2.26.32-5.3-1.39-7.85-2.17-9.85-2.8-4.2-1.38-7.84-2.61-13.08-4.3-1.89-.61-5.36-1.68-8.11-2.37,1.52-1.82-1.67-4-4.67-6.45-1.5-1.22-2.8-.69-4.21-2s-1.92-2.89-3.23-4.3-2.56-1.17-3.14-2.88c-1.32.18-2.62-1.52-3.19-1.59-1.75-1-2.94-3.21-4.66-7.41-2.58-1.94-3.27-7.57-4.07-9.56-.22.19-3.33-5.8-4.86-9.33a113.82,113.82,0,0,1-4.07-10.73c-1.32-4-.68-7.2-2.08-11.94-3.16-3.5-2.55-8.22-2.87-12.1a84.62,84.62,0,0,1-.26-11.3,35.58,35.58,0,0,0-2.8,8.6c-.66,3.22-1.31,2.64-.75,7.57-1.93,7.44-2,10.82.34,18.58.38,3.5.43,4.93,1.17,9.39s1.67,9,2.77,13.58a75.64,75.64,0,0,1-6.84-11c-2-3.8-3.59-7.72-5.51-10.31C7,130.65,3.69,114.68,3.32,110.8a112.33,112.33,0,0,1-.56-11.25,101.05,101.05,0,0,1,.9-13.45c.58-4.39,1.45-8.69,1.6-12.32,2.13-4.76,3.53-8.84,3.37-15C12.09,57,14,53.23,16.1,49.56a99.62,99.62,0,0,1,9.64-13.83c1.79-2.16,3.68-4.24,3.52-4.41,3.1-2.81,5.23-4.62,7.3-6.31,3-2.45,6.07-4.76,9.93-7.62a62.92,62.92,0,0,1,5.69-3.63A41.11,41.11,0,0,1,56.67,11c1.9-1,19.19-7.38,25.08-8.91-.29.23,2.57-.3,5.46-.69C91.54.81,96,.49,96,3.21c8.58-2.72,12.63-2.46,19.76-.29.82-1.17,4.73-.43,8.53.54a97,97,0,0,1,11,3.48c3.82,1.5,7.33,3.12,5.42,2a186.9,186.9,0,0,1,16.82,10c.74.57,1.85,1.45,3.14,2.5s2.77,2.3,3.11,1.36c3,3.9,9.35,11.22,13.47,14.46,1,1.47,1.44,2.79,2.92,4.89.1.16-.53-.21-1.71-.86-1.36-.8-3-.33-4-1.62-4.34-3.85-6.68-5.27-13.87-5.45-3.05-1.64-3.71-3-7.79-4.28-20.41-6.23-48.4-8-70.14,16.83,1.13-3.22,2.54-6.12,4.65-7.94a15,15,0,0,1,6.92-8c1.57-2.58,4.51-4.72,7.93-6.77a106.55,106.55,0,0,1,11.84-6,101.79,101.79,0,0,0-11.36,1.81c-3.6.79-7,1.75-9,2.34C89.09,23.92,86,25.19,89,23.67a177.45,177.45,0,0,0-17.17,9.39c.6-.14-1.78,1.64-4,3.53a37.44,37.44,0,0,0-6.49,6.69,23.18,23.18,0,0,0-6.61,10.77c-5.62-.19-4,4-5.59,8.18a36.38,36.38,0,0,0-3.1,7.67c-1,3.42-.32,10.3-2.59,10-2.55,7.4-.12,19.22.53,23.4,2.62,16.72,10.13,29.25,19.65,38.33,3,2.84,16.07,11.57,21.37,15.16,1.51-.46,4.93.82,8.28,1.83a66.58,66.58,0,0,0,18.62,2.92,64,64,0,0,0,25.39-5,88.37,88.37,0,0,0,8.77-4.45,93.28,93.28,0,0,0,10.59-9c1.46-1.76,3.56-4.5,6.65-9,.42-1.1,1.83-4,2.88-7a37.49,37.49,0,0,0,2-8.84c.23-2.13.29-4.26.32-6s0-3.12,0-3.78c-.54-2.23-1.05-4.14.37-5-2.67-3-2.28-4.2-3.21-7.43s-2.79-2.7-4.25-7.39a44.86,44.86,0,0,1-5.15-3.35,33.85,33.85,0,0,0-4.83-3.45,32.23,32.23,0,0,0-5.59-2.64,38.72,38.72,0,0,0-13.23-2.27c-4.2,0-8.06.66-6.39-.09-8.78,3-12,4.6-17.17,7.73-.59.82-3.08,3.13-5.13,5.68a30.64,30.64,0,0,0-4.75,8.14A24.22,24.22,0,0,0,97.59,107a26.93,26.93,0,0,0,1.26,8.19c.67,2.14,1.66,4.3,2,5.3,2.44,3.2,4.21,5.25,2.87,4.33a70.05,70.05,0,0,0,14.63,9.59c.42-.15,4.24,1.12,8.69,2.05-3.58,1.09-7,1.68-10,2.29-3.62-.24-6.74-.47-10.13,1.4-2.46-3-5.22-4-8.44-4.74-1.86-1.6-4.21-3.07-6.32-4.72a58.61,58.61,0,0,1-7.2-6.92c-2-3.29-2.52-3.58-4.48-6.59-2.71-5.59-1.76-9.43-1.42-14.68,2.63-4.39.64-5.75,2.14-9.57C85.68,81.52,95.7,75.05,103.93,69a35.67,35.67,0,0,0-10.28,1.48,15.47,15.47,0,0,0-7.06,4.7c-6.83.71-7.43,3.25-10.22,9.4-2.19-1.42-4.52,1.22-6.73,4,1.53-4.4,3.29-8.34,2-6.47A136.3,136.3,0,0,1,83.94,63.76a43.94,43.94,0,0,0,4.7-3.5,49.89,49.89,0,0,1,11.3-6.62c5.23-1.81,9.62-2.75,19.89-3.8-1.5.26,2.88.41,7.13,1s8.34,1.53,9.83,1.88a103.1,103.1,0,0,1,15.89,7.06c.12.21,2.85,2.13,5,4.12s5.17,3.78,6.15,5.76c-.81-3.94-1.09-6-2.72-9s-3.21-5.73-6.32-7.66c-4.55-.78-8.41-5.24-12.62-7.61a28,28,0,0,0,9-.1c2.47.57,5.08.88,7.58,1.42A40.87,40.87,0,0,1,166,48.92c3.42,1.46,6.6,3.36,9.08,3.88,3.35,4,12.89,15.68,14.73,19.08a69.84,69.84,0,0,1,4.59,10.63,72.29,72.29,0,0,1,2.82,11.27c.21,1.27.19,4.78.48,3.67-.61,9.64-.9,14.64-1.42,23.6-.16-.5-.53,3-.86,4.19" transform="translate(-2.76 -1)"/></g></svg>